<?xml version="1.0" ?><svg fill="none" height="27" viewBox="0 0 20 27" width="20" xmlns="http://www.w3.org/2000/svg"><path d="M10.2 18.4344C14.8392 18.4344 18.6 14.6659 18.6 10.0172C18.6 5.36848 14.8392 1.59998 10.2 1.59998C5.5608 1.59998 1.8 5.36848 1.8 10.0172C1.8 14.6659 5.5608 18.4344 10.2 18.4344Z" stroke="#4F4F4F" stroke-miterlimit="10" stroke-width="2"/><path d="M15.5 25.1481L14.1 25.5489C13.3 25.7493 12.5 25.3485 12.3 24.5468L10.8 19.0356L15 17.8331L16.5 23.3444C16.8 24.146 16.3 24.9477 15.5 25.1481Z" stroke="#4F4F4F" stroke-miterlimit="10" stroke-width="2"/><path d="M11.5 21.6409L15.7 20.4385" stroke="#4F4F4F" stroke-miterlimit="10" stroke-width="2"/><path d="M14.7 7.51209C14.2 5.8086 12.4 4.80656 10.6 5.30758" stroke="#4F4F4F" stroke-linecap="round" stroke-miterlimit="10" stroke-width="2"/><path d="M15.4 10.5182L15.6 11.2197" stroke="#4F4F4F" stroke-linecap="round" stroke-miterlimit="10" stroke-width="2"/></svg>